HIERARCHY
ROOT Hips
{
  OFFSET 3.90583 100.824 112.075
  CHANNELS 6 Xposition Yposition Zposition Zrotation Xrotation Yrotation
  JOINT Spine
  {
    OFFSET 0 10.1816 0.1315
    CHANNELS 6 Xposition Yposition Zposition Zrotation Xrotation Yrotation
    JOINT Spine1
    {
      OFFSET 0 10.0835 -1.0008
      CHANNELS 6 Xposition Yposition Zposition Zrotation Xrotation Yrotation
      JOINT Spine2
      {
        OFFSET 0 9.1 -1.3734
        CHANNELS 6 Xposition Yposition Zposition Zrotation Xrotation Yrotation
        JOINT Neck
        {
          OFFSET 0 16.6717 -2.5162
          CHANNELS 6 Xposition Yposition Zposition Zrotation Xrotation Yrotation
          JOINT Head
          {
            OFFSET 0 9.6179 1.685
            CHANNELS 6 Xposition Yposition Zposition Zrotation Xrotation Yrotation
            JOINT HeadTop_End
            {
              OFFSET 0 17.8152 2.585
              CHANNELS 6 Xposition Yposition Zposition Zrotation Xrotation Yrotation
              End Site
              {
                OFFSET 0 0 0
              }
            }
            JOINT LeftEye
            {
              OFFSET 3.0676 6.4095 9.2836
              CHANNELS 6 Xposition Yposition Zposition Zrotation Xrotation Yrotation
              End Site
              {
                OFFSET 0 0 0
              }
            }
            JOINT RightEye
            {
              OFFSET -3.0676 6.4095 9.2835
              CHANNELS 6 Xposition Yposition Zposition Zrotation Xrotation Yrotation
              End Site
              {
                OFFSET 0 0 0
              }
            }
          }
        }
        JOINT LeftShoulder
        {
          OFFSET 4.5704 10.946 -2.628
          CHANNELS 6 Xposition Yposition Zposition Zrotation Xrotation Yrotation
          JOINT LeftArm
          {
            OFFSET 10.5924 -0.5246 -2.2321
            CHANNELS 6 Xposition Yposition Zposition Zrotation Xrotation Yrotation
            JOINT LeftForeArm
            {
              OFFSET 27.8415 -0.0001 0
              CHANNELS 6 Xposition Yposition Zposition Zrotation Xrotation Yrotation
              JOINT LeftHand
              {
                OFFSET 28.3288 0 0
                CHANNELS 6 Xposition Yposition Zposition Zrotation Xrotation Yrotation
                JOINT LeftHandThumb1
                {
                  OFFSET 2.4661 -1.575 2.6824
                  CHANNELS 6 Xposition Yposition Zposition Zrotation Xrotation Yrotation
                  JOINT LeftHandThumb2
                  {
                    OFFSET 3.2298 -1.8647 1.8647
                    CHANNELS 6 Xposition Yposition Zposition Zrotation Xrotation Yrotation
                    JOINT LeftHandThumb3
                    {
                      OFFSET 2.6526 -1.5315 1.5315
                      CHANNELS 6 Xposition Yposition Zposition Zrotation Xrotation Yrotation
                      End Site
                      {
                        OFFSET 1.9546 -1.1285 1.1285
                      }
                    }
                  }
                }
                JOINT LeftHandIndex1
                {
                  OFFSET 9.1093 -0.5171 2.2601
                  CHANNELS 6 Xposition Yposition Zposition Zrotation Xrotation Yrotation
                  JOINT LeftHandIndex2
                  {
                    OFFSET 3.6764 0 0
                    CHANNELS 6 Xposition Yposition Zposition Zrotation Xrotation Yrotation
                    JOINT LeftHandIndex3
                    {
                      OFFSET 2.8831 0 0
                      CHANNELS 6 Xposition Yposition Zposition Zrotation Xrotation Yrotation
                      End Site
                      {
                        OFFSET 2.3927 0 0
                      }
                    }
                  }
                }
                JOINT LeftHandMiddle1
                {
                  OFFSET 9.5334 0 0
                  CHANNELS 6 Xposition Yposition Zposition Zrotation Xrotation Yrotation
                  JOINT LeftHandMiddle2
                  {
                    OFFSET 3.6982 0 0
                    CHANNELS 6 Xposition Yposition Zposition Zrotation Xrotation Yrotation
                    JOINT LeftHandMiddle3
                    {
                      OFFSET 2.9509 0 0
                      CHANNELS 6 Xposition Yposition Zposition Zrotation Xrotation Yrotation
                      End Site
                      {
                        OFFSET 2.8339 0 0
                      }
                    }
                  }
                }
                JOINT LeftHandRing1
                {
                  OFFSET 9.1045 -0.0439 -1.8651
                  CHANNELS 6 Xposition Yposition Zposition Zrotation Xrotation Yrotation
                  JOINT LeftHandRing2
                  {
                    OFFSET 3.154 0 0
                    CHANNELS 6 Xposition Yposition Zposition Zrotation Xrotation Yrotation
                    JOINT LeftHandRing3
                    {
                      OFFSET 2.9377 0 0
                      CHANNELS 6 Xposition Yposition Zposition Zrotation Xrotation Yrotation
                      End Site
                      {
                        OFFSET 2.6475 0 0
                      }
                    }
                  }
                }
                JOINT LeftHandPinky1
                {
                  OFFSET 8.0778 -0.4887 -3.8061
                  CHANNELS 6 Xposition Yposition Zposition Zrotation Xrotation Yrotation
                  JOINT LeftHandPinky2
                  {
                    OFFSET 3.6 0 0
                    CHANNELS 6 Xposition Yposition Zposition Zrotation Xrotation Yrotation
                    JOINT LeftHandPinky3
                    {
                      OFFSET 2.1142 0 0
                      CHANNELS 6 Xposition Yposition Zposition Zrotation Xrotation Yrotation
                      End Site
                      {
                        OFFSET 1.9757 0 0
                      }
                    }
                  }
                }
              }
            }
          }
        }
        JOINT RightShoulder
        {
          OFFSET -4.57 10.9462 -2.628
          CHANNELS 6 Xposition Yposition Zposition Zrotation Xrotation Yrotation
          JOINT RightArm
          {
            OFFSET -10.5928 -0.5248 -2.2321
            CHANNELS 6 Xposition Yposition Zposition Zrotation Xrotation Yrotation
            JOINT RightForeArm
            {
              OFFSET -27.8415 0 0
              CHANNELS 6 Xposition Yposition Zposition Zrotation Xrotation Yrotation
              JOINT RightHand
              {
                OFFSET -28.3288 0 0.0001
                CHANNELS 6 Xposition Yposition Zposition Zrotation Xrotation Yrotation
                JOINT RightHandPinky1
                {
                  OFFSET -8.0767 -0.4885 -3.806
                  CHANNELS 6 Xposition Yposition Zposition Zrotation Xrotation Yrotation
                  JOINT RightHandPinky2
                  {
                    OFFSET -3.6 0 0.0001
                    CHANNELS 6 Xposition Yposition Zposition Zrotation Xrotation Yrotation
                    JOINT RightHandPinky3
                    {
                      OFFSET -2.1142 0 0
                      CHANNELS 6 Xposition Yposition Zposition Zrotation Xrotation Yrotation
                      End Site
                      {
                        OFFSET -1.9757 0 0
                      }
                    }
                  }
                }
                JOINT RightHandRing1
                {
                  OFFSET -9.1036 -0.0439 -1.8651
                  CHANNELS 6 Xposition Yposition Zposition Zrotation Xrotation Yrotation
                  JOINT RightHandRing2
                  {
                    OFFSET -3.154 0 0
                    CHANNELS 6 Xposition Yposition Zposition Zrotation Xrotation Yrotation
                    JOINT RightHandRing3
                    {
                      OFFSET -2.9377 0 0
                      CHANNELS 6 Xposition Yposition Zposition Zrotation Xrotation Yrotation
                      End Site
                      {
                        OFFSET -2.6475 0 0
                      }
                    }
                  }
                }
                JOINT RightHandMiddle1
                {
                  OFFSET -9.5325 0 0
                  CHANNELS 6 Xposition Yposition Zposition Zrotation Xrotation Yrotation
                  JOINT RightHandMiddle2
                  {
                    OFFSET -3.6982 0 0
                    CHANNELS 6 Xposition Yposition Zposition Zrotation Xrotation Yrotation
                    JOINT RightHandMiddle3
                    {
                      OFFSET -2.9509 0 0
                      CHANNELS 6 Xposition Yposition Zposition Zrotation Xrotation Yrotation
                      End Site
                      {
                        OFFSET -2.8339 0 0.0001
                      }
                    }
                  }
                }
                JOINT RightHandIndex1
                {
                  OFFSET -9.1083 -0.5168 2.2601
                  CHANNELS 6 Xposition Yposition Zposition Zrotation Xrotation Yrotation
                  JOINT RightHandIndex2
                  {
                    OFFSET -3.6764 0 0
                    CHANNELS 6 Xposition Yposition Zposition Zrotation Xrotation Yrotation
                    JOINT RightHandIndex3
                    {
                      OFFSET -2.8831 0 0
                      CHANNELS 6 Xposition Yposition Zposition Zrotation Xrotation Yrotation
                      End Site
                      {
                        OFFSET -2.3927 0 0
                      }
                    }
                  }
                }
                JOINT RightHandThumb1
                {
                  OFFSET -2.4648 -1.5727 2.6826
                  CHANNELS 6 Xposition Yposition Zposition Zrotation Xrotation Yrotation
                  JOINT RightHandThumb2
                  {
                    OFFSET -3.2298 -1.8647 1.8647
                    CHANNELS 6 Xposition Yposition Zposition Zrotation Xrotation Yrotation
                    JOINT RightHandThumb3
                    {
                      OFFSET -2.6526 -1.5314 1.5314
                      CHANNELS 6 Xposition Yposition Zposition Zrotation Xrotation Yrotation
                      End Site
                      {
                        OFFSET -1.9546 -1.1285 1.1285
                      }
                    }
                  }
                }
              }
            }
          }
        }
      }
    }
  }
  JOINT LeftUpLeg
  {
    OFFSET 8.2078 -6.7517 -1.5996
    CHANNELS 6 Xposition Yposition Zposition Zrotation Xrotation Yrotation
    JOINT LeftLeg
    {
      OFFSET 0 -44.3705 0.2846
      CHANNELS 6 Xposition Yposition Zposition Zrotation Xrotation Yrotation
      JOINT LeftFoot
      {
        OFFSET 0 -44.4279 -2.9822
        CHANNELS 6 Xposition Yposition Zposition Zrotation Xrotation Yrotation
        JOINT LeftToeBase
        {
          OFFSET 0 -8.7287 10.7106
          CHANNELS 6 Xposition Yposition Zposition Zrotation Xrotation Yrotation
          End Site
          {
            OFFSET 0 -0.0007 9.2781
          }
        }
      }
    }
  }
  JOINT RightUpLeg
  {
    OFFSET -8.2078 -6.7517 -1.5996
    CHANNELS 6 Xposition Yposition Zposition Zrotation Xrotation Yrotation
    JOINT RightLeg
    {
      OFFSET 0 -44.3705 0.2862
      CHANNELS 6 Xposition Yposition Zposition Zrotation Xrotation Yrotation
      JOINT RightFoot
      {
        OFFSET 0 -44.4277 -2.9838
        CHANNELS 6 Xposition Yposition Zposition Zrotation Xrotation Yrotation
        JOINT RightToeBase
        {
          OFFSET 0 -8.7287 10.7106
          CHANNELS 6 Xposition Yposition Zposition Zrotation Xrotation Yrotation
          End Site
          {
            OFFSET 0 -0.0007 9.2781
          }
        }
      }
    }
  }
}
MOTION
Frames:	4
Frame Time:	0.0333333
0.129228 102.884 1.36399 -0.0729532 -3.37393 3.24247 0 10.1816 0.1315 1.30782 5.85295 0.229999 8.88178e-016 10.0835 -1.0008 0.232606 0.649668 0.0933088 0 9.1 -1.3734 0.232892 0.649856 0.088929 0 16.6717 -2.5162 0.0718934 -0.992672 -0.418025 4.44089e-016 9.6179 1.685 -2.34211 -2.59477 -4.1005 0 17.8152 2.585 -2.18585e-016 -2.48481e-017 -2.98177e-016 3.0676 6.4095 9.2836 -2.18585e-016 -2.48481e-017 -2.98177e-016 -3.0676 6.4095 9.2835 -2.18585e-016 -2.48481e-017 -2.98177e-016 4.5704 10.946 -2.628 -18.4298 1.78204 -3.61195 10.5924 -0.5246 -2.2321 -62.1316 9.43502 -2.30352 27.8415 -0.0001 0 -0.000176894 -3.32906e-006 -8.28393 28.3288 -7.10543e-015 1.33227e-015 4.92712 9.63694 -4.68737 2.4661 -1.575 2.6824 13.6709 -3.11086 -0.769491 3.2298 -1.8647 1.8647 -6.83437 16.7794 21.8016 2.6526 -1.5315 1.5315 13.336 -22.428 -14.3074 9.1093 -0.5171 2.2601 -28.9254 -1.80624 1.48325 3.6764 -2.66454e-015 1.33227e-015 -29.1617 -0.741358 2.84949 2.8831 7.10543e-015 -8.88178e-016 -16.6065 -0.243863 1.67083 9.5334 0 8.88178e-016 -37.8052 -2.62953 5.81319 3.6982 3.55271e-015 0 -31.1254 -0.842082 3.02295 2.9509 7.10543e-015 0 -20.5308 -0.371392 2.05048 9.1045 -0.0439 -1.8651 -38.9354 -2.72247 9.85995 3.154 -1.77636e-015 0 -41.1012 -1.44215 3.84559 2.9377 0 0 -15.7705 -0.22007 1.58888 8.0778 -0.4887 -3.8061 -35.884 -2.57638 6.9138 3.6 5.32907e-015 0 -28.4213 -0.704934 2.7832 2.1142 0 0 -19.7424 -0.343688 1.97491 -4.57 10.9462 -2.628 17.8964 0.873188 0.0564655 -10.5928 -0.5248 -2.2321 60.9435 6.26474 5.47055 -27.8415 0 0 -2.305e-005 -3.08802e-006 15.4594 -28.3288 7.10543e-015 0.0001 -4.01927 -0.70535 5.47477 -8.0767 -0.4885 -3.806 44.5083 -2.9021 -4.62655 -3.6 7.10543e-015 0.0001 38.3334 -1.00007 -2.87825 -2.1142 0 -5.32907e-015 26.0522 -0.471659 -2.03855 -9.1036 -0.0439 -1.8651 41.2725 -2.6164 -8.67502 -3.154 -1.77636e-015 0 33.7749 -0.783591 -2.58074 -2.9377 0 3.55271e-015 17.1176 -0.205597 -1.36603 -9.5325 7.10543e-015 -3.55271e-015 35.2293 -2.13024 -5.43736 -3.6982 -2.66454e-015 7.10543e-015 38.0202 -0.985358 -2.85954 -2.9509 7.10543e-015 -3.55271e-015 14.5888 -0.149638 -1.17099 -9.1083 -0.5168 2.2601 22.4894 -1.18044 -1.98499 -3.6764 0 0 40.9599 -1.13693 -3.0435 -2.8831 0 0 18.5182 -0.240318 -1.47406 -2.4648 -1.5727 2.6826 -8.81396 -9.51783 3.42009 -3.2298 -1.8647 1.8647 -1.33101 18.3782 -27.5631 -2.6526 -1.5314 1.5314 -12.1316 -9.38095 15.9818 8.2078 -6.7517 -1.5996 1.37789 -24.1125 4.01733 -2.66454e-015 -44.3705 0.2846 0.783724 54.0736 2.30801 8.88178e-016 -44.4279 -2.9822 -3.18911 -0.312925 0.144026 0 -8.7287 10.7106 6.27295e-007 -0.350526 4.10351e-006 -8.2078 -6.7517 -1.5996 1.33972 -3.15346 -9.87264 -8.88178e-016 -44.3705 0.2862 2.05825 15.091 -2.74677 -4.44089e-016 -44.4277 -2.9838 -3.84027 -9.00905 -0.437066 4.44089e-016 -8.7287 10.7106 -3.13669e-007 -3.13704 -5.27468e-006 
0.0608244 102.907 6.52887 0.833976 -2.43353 2.08199 2.22045e-016 10.1816 0.1315 0.142777 5.4342 1.54831 2.22045e-016 10.0835 -1.0008 0.0829251 0.62733 0.440338 -2.22045e-016 9.1 -1.3734 0.0808791 0.628297 0.436227 4.44089e-016 16.6717 -2.5162 0.0485616 -1.02754 -0.488588 2.22045e-016 9.6179 1.685 -2.50498 -3.04015 -4.46317 8.88178e-016 17.8152 2.585 -5.53015e-017 0 4.96962e-017 3.0676 6.4095 9.2836 -5.53015e-017 0 4.96962e-017 -3.0676 6.4095 9.2835 -5.53015e-017 0 4.96962e-017 4.5704 10.946 -2.628 -18.5117 1.63148 -2.99235 10.5924 -0.5246 -2.2321 -63.7739 9.12466 1.50819 27.8415 -0.0001 -3.55271e-015 -0.000213865 2.26659e-006 -7.98434 28.3288 0 0 3.90019 13.1338 -3.71752 2.4661 -1.575 2.6824 13.6709 -3.11086 -0.769491 3.2298 -1.8647 1.8647 -6.90746 16.794 21.9516 2.6526 -1.5315 1.5315 13.6973 -22.8723 -14.5021 9.1093 -0.5171 2.2601 -30.4586 -1.86627 1.64828 3.6764 0 1.77636e-015 -30.3151 -0.799796 2.95178 2.8831 0 0 -17.5857 -0.273242 1.76636 9.5334 0 -1.77636e-015 -38.9238 -2.73766 5.81888 3.6982 -3.55271e-015 0 -32.1591 -0.897474 3.11284 2.9509 7.10543e-015 3.55271e-015 -21.6495 -0.412486 2.15702 9.1045 -0.0439 -1.8651 -40.1586 -2.84207 9.92484 3.154 0 -7.10543e-015 -42.0038 -1.50334 3.91466 2.9377 -7.10543e-015 0 -16.767 -0.24856 1.68651 8.0778 -0.4887 -3.8061 -37.0263 -2.70791 6.95703 3.6 -1.77636e-015 0 -29.164 -0.741474 2.84969 2.1142 0 -3.55271e-015 -20.7047 -0.377645 2.06709 -4.57 10.9462 -2.628 17.6239 0.918206 0.278725 -10.5928 -0.5248 -2.2321 59.4708 8.33543 8.68838 -27.8415 0 4.44089e-016 -1.09776e-005 -1.21357e-006 18.8139 -28.3288 -7.10543e-015 0.0001 -3.64385 -3.30358 7.49241 -8.0767 -0.4885 -3.806 44.5642 -2.90681 -4.44966 -3.6 3.55271e-015 0.0001 38.3595 -1.00137 -2.87991 -2.1142 0 0 26.1797 -0.476212 -2.04782 -9.1036 -0.0439 -1.8651 41.3612 -2.62461 -8.54042 -3.154 -8.88178e-016 0 33.9697 -0.792389 -2.59386 -2.9377 7.10543e-015 3.55271e-015 17.2067 -0.207726 -1.37292 -9.5325 0 0 35.2667 -2.13345 -5.23895 -3.6982 -3.55271e-015 0 38.2018 -0.994447 -2.87113 -2.9509 0 -7.10543e-015 14.6706 -0.15131 -1.1774 -9.1083 -0.5168 2.2601 22.3561 -1.16731 -1.85557 -3.6764 -3.55271e-015 -7.10543e-015 41.0636 -1.14245 -3.04985 -2.8831 3.55271e-015 0 18.5331 -0.240702 -1.4752 -2.4648 -1.5727 2.6826 -8.81396 -9.51783 3.42009 -3.2298 -1.8647 1.8647 -1.29648 18.4011 -27.6171 -2.6526 -1.5314 1.5314 -12.3696 -9.53269 16.2004 8.2078 -6.7517 -1.5996 -0.0572174 -27.4357 3.95349 0 -44.3705 0.2846 -0.114794 44.5035 5.36136 -8.88178e-016 -44.4279 -2.9822 -3.10098 -0.885003 0.117424 0 -8.7287 10.7106 2.67779e-006 -0.836912 -8.47153e-006 -8.2078 -6.7517 -1.5996 0.606517 -0.459882 -10.1898 0 -44.3705 0.2862 1.92099 14.3219 -1.36608 -8.88178e-016 -44.4277 -2.9838 -4.80212 -11.4539 -0.644743 4.44089e-016 -8.7287 10.7106 5.8956e-007 -4.11614 -1.01259e-006 
0.080914 102.594 11.6439 1.51993 -1.64342 0.888253 4.44089e-016 10.1816 0.1315 -0.724104 5.16978 2.64046 1.11022e-016 10.0835 -1.0008 -0.0193219 0.619173 0.733622 3.33067e-016 9.1 -1.3734 -0.0232551 0.620479 0.729549 -3.33067e-016 16.6717 -2.5162 0.00478597 -1.11233 -0.51671 1.11022e-016 9.6179 1.685 -2.7234 -3.57171 -4.44723 0 17.8152 2.585 -4.05237e-016 7.45443e-017 7.45443e-017 3.0676 6.4095 9.2836 -4.05237e-016 7.45443e-017 7.45443e-017 -3.0676 6.4095 9.2835 -4.05237e-016 7.45443e-017 7.45443e-017 4.5704 10.946 -2.628 -18.6702 1.47149 -2.32264 10.5924 -0.5246 -2.2321 -65.2566 7.93555 5.41331 27.8415 -0.0001 -3.55271e-015 -0.000218495 -6.16288e-007 -7.64967 28.3288 0 0 3.72085 15.9132 -3.39876 2.4661 -1.575 2.6824 13.6709 -3.11086 -0.769491 3.2298 -1.8647 1.8647 -6.99528 16.8115 22.1313 2.6526 -1.5315 1.5315 14.0142 -23.2507 -14.6749 9.1093 -0.5171 2.2601 -32.0073 -1.92647 1.8368 3.6764 3.55271e-015 1.77636e-015 -31.4459 -0.859078 3.05092 2.8831 0 3.55271e-015 -18.7044 -0.308801 1.87487 9.5334 0 0 -40.072 -2.8499 5.81139 3.6982 0 0 -33.2079 -0.955341 3.20305 2.9509 7.10543e-015 3.55271e-015 -22.7738 -0.455879 2.2633 9.1045 -0.0439 -1.8651 -41.3194 -2.9565 10.0282 3.154 3.55271e-015 3.55271e-015 -42.8561 -1.56212 3.97899 2.9377 -7.10543e-015 0 -17.8049 -0.28004 1.78766 8.0778 -0.4887 -3.8061 -38.1397 -2.83824 7.00169 3.6 -3.55271e-015 0 -29.948 -0.780974 2.91935 2.1142 1.42109e-014 -3.55271e-015 -21.6661 -0.413114 2.15861 -4.57 10.9462 -2.628 17.3386 0.985791 0.601558 -10.5928 -0.5248 -2.2321 57.7035 10.199 11.7287 -27.8415 -7.10543e-015 0 1.33177e-005 5.20792e-006 22.1893 -28.3288 0 0.0001 -3.90992 -4.50989 9.40497 -8.0767 -0.4885 -3.806 44.9229 -2.93752 -4.25043 -3.6 1.77636e-015 0.0001 38.5583 -1.01141 -2.89254 -2.1142 0 7.10543e-015 26.4419 -0.485633 -2.06688 -9.1036 -0.0439 -1.8651 41.574 -2.64376 -8.3042 -3.154 1.77636e-015 -7.10543e-015 34.3485 -0.809644 -2.61927 -2.9377 -7.10543e-015 0 17.4472 -0.21353 -1.39152 -9.5325 -7.10543e-015 0 35.5818 -2.15885 -5.03964 -3.6982 0 0 38.4741 -1.00814 -2.88843 -2.9509 1.06581e-014 0 14.9802 -0.157727 -1.20165 -9.1083 -0.5168 2.2601 22.2659 -1.1497 -1.74615 -3.6764 0 7.10543e-015 41.3559 -1.15807 -3.06769 -2.8831 3.55271e-015 -7.10543e-015 18.814 -0.247995 -1.49676 -2.4648 -1.5727 2.6826 -8.81396 -9.51783 3.42009 -3.2298 -1.8647 1.8647 -1.028 18.5996 -28.0491 -2.6526 -1.5314 1.5314 -12.7064 -9.80693 16.6056 8.2078 -6.7517 -1.5996 -0.874856 -28.9029 4.14257 -8.88178e-016 -44.3705 0.2846 -0.458505 32.208 9.43558 -1.77636e-015 -44.4279 -2.9822 -2.52091 -0.550457 0.0919103 -1.77636e-015 -8.7287 10.7106 1.17311e-006 -0.567406 -2.41705e-006 -8.2078 -6.7517 -1.5996 -0.0899547 1.91462 -10.507 0 -44.3705 0.2862 1.86316 14.3988 -0.16224 -4.44089e-016 -44.4277 -2.9838 -6.31947 -14.1395 -0.993613 -4.44089e-016 -8.7287 10.7106 1.26474e-006 -7.00132 5.15743e-006 
0.176211 102.01 17.2457 1.703 -1.07076 0.243568 8.88178e-016 10.1816 0.1315 -1.0354 5.00917 3.32592 -2.22045e-016 10.0835 -1.0008 -0.0348056 0.624662 0.924114 4.44089e-016 9.1 -1.3734 -0.0400545 0.62647 0.919803 -4.44089e-016 16.6717 -2.5162 -0.0174799 -1.19632 -0.561383 2.22045e-016 9.6179 1.685 -2.90703 -3.94721 -4.65292 -8.88178e-016 17.8152 2.585 -6.19455e-016 2.48481e-017 -0 3.0676 6.4095 9.2836 -6.19455e-016 2.48481e-017 -0 -3.0676 6.4095 9.2835 -6.19455e-016 2.48481e-017 -0 4.5704 10.946 -2.628 -18.9677 1.37823 -1.89592 10.5924 -0.5246 -2.2321 -66.3234 6.40131 9.0299 27.8415 -0.0001 -1.06581e-014 -0.000202858 -1.23292e-006 -7.10913 28.3288 0 -1.77636e-015 3.77195 17.0717 -2.98567 2.4661 -1.575 2.6824 13.6709 -3.11086 -0.769491 3.2298 -1.8647 1.8647 -6.95725 16.8039 22.0534 2.6526 -1.5315 1.5315 13.6594 -22.788 -14.4783 9.1093 -0.5171 2.2601 -32.5849 -1.90195 2.04392 3.6764 3.55271e-015 0 -32.552 -0.91896 3.14677 2.8831 0 0 -20.0486 -0.354323 2.0043 9.5334 0 -3.55271e-015 -40.7348 -2.91517 5.96757 3.6982 -7.10543e-015 -3.55271e-015 -34.2728 -1.01577 3.29354 2.9509 -7.10543e-015 -3.55271e-015 -23.788 -0.496803 2.35841 9.1045 -0.0439 -1.8651 -41.9409 -3.01688 10.2557 3.154 -3.55271e-015 0 -43.5621 -1.61154 4.0316 2.9377 -7.10543e-015 7.10543e-015 -18.771 -0.310983 1.88129 8.0778 -0.4887 -3.8061 -38.6876 -2.92633 7.12511 3.6 3.55271e-015 7.10543e-015 -30.8051 -0.825243 2.99488 2.1142 1.42109e-014 0 -22.4974 -0.445017 2.23724 -4.57 10.9462 -2.628 17.186 1.0528 0.906537 -10.5928 -0.5248 -2.2321 55.7888 11.4331 14.4635 -27.8415 7.10543e-015 0 4.59356e-006 7.97584e-007 25.2059 -28.3288 -7.10543e-015 0.0001 -4.44306 -4.85347 10.7159 -8.0767 -0.4885 -3.806 45.2225 -2.96326 -4.16296 -3.6 -1.77636e-015 0.0001 38.9068 -1.02908 -2.91459 -2.1142 3.55271e-015 7.10543e-015 26.8456 -0.5003 -2.09612 -9.1036 -0.0439 -1.8651 41.9105 -2.6726 -8.22596 -3.154 3.55271e-015 -7.10543e-015 34.8218 -0.83142 -2.65086 -2.9377 3.55271e-015 0 17.8658 -0.223808 -1.42384 -9.5325 0 0 36.0157 -2.19375 -5.00011 -3.6982 0 0 38.7959 -1.02443 -2.90883 -2.9509 -3.55271e-015 0 15.4132 -0.166911 -1.2355 -9.1083 -0.5168 2.2601 22.5963 -1.1542 -1.70822 -3.6764 0 -1.42109e-014 41.8084 -1.18242 -3.09514 -2.8831 -3.55271e-015 0 19.2658 -0.259927 -1.53136 -2.4648 -1.5727 2.6826 -8.81396 -9.51783 3.42009 -3.2298 -1.8647 1.8647 -0.862732 18.7208 -28.3136 -2.6526 -1.5314 1.5314 -13.1083 -10.0925 17.0238 8.2078 -6.7517 -1.5996 -1.58089 -27.5499 3.93544 0 -44.3705 0.2846 -0.191865 16.1329 9.74152 0 -44.4279 -2.9822 -1.14571 0.565881 2.9927 -1.77636e-015 -8.7287 10.7106 -9.40046e-007 0.276404 6.8619e-007 -8.2078 -6.7517 -1.5996 -0.413607 5.6261 -10.9843 8.88178e-016 -44.3705 0.2862 2.09706 12.9326 0.786002 0 -44.4277 -2.9838 -6.66569 -15.9408 -1.21413 8.88178e-016 -8.7287 10.7106 5.91891e-007 -8.94598 3.43764e-006 
